<mxfile host="app.diagrams.net" modified="2023-07-03T12:13:07.408Z" agent="Mozilla/5.0 (Windows NT 10.0; Win64; x64) AppleWebKit/537.36 (KHTML, like Gecko) Chrome/114.0.0.0 Safari/537.36 Edg/114.0.1823.67" etag="nVliDR5MUTE1RYCmVTKL" version="21.5.2" type="device">
  <diagram name="Page-1" id="IWaMmSovfPzeFw4sX43J">
    <mxGraphModel dx="2283" dy="1750" grid="0" gridSize="10" guides="1" tooltips="1" connect="1" arrows="1" fold="1" page="0" pageScale="1" pageWidth="850" pageHeight="1100" background="none" math="0" shadow="0">
      <root>
        <mxCell id="0" />
        <mxCell id="1" parent="0" />
        <mxCell id="qSlRghDkS1WylrSBOuWX-107" value="&lt;pre&gt;&lt;font style=&quot;font-size: 15px;&quot; color=&quot;#e3c800&quot;&gt;&lt;i&gt;MODEL&lt;/i&gt;&lt;/font&gt;&lt;/pre&gt;" style="rounded=0;whiteSpace=wrap;html=1;fillColor=none;fontColor=#EEEEEE;strokeColor=#BAC8D3;align=right;verticalAlign=bottom;labelBackgroundColor=none;" vertex="1" parent="1">
          <mxGeometry x="-390" y="460" width="1100" height="460" as="geometry" />
        </mxCell>
        <mxCell id="qSlRghDkS1WylrSBOuWX-105" value="&lt;pre&gt;&lt;font style=&quot;font-size: 15px;&quot; color=&quot;#e3c800&quot;&gt;&lt;i&gt;VIEW&lt;/i&gt;&lt;/font&gt;&lt;/pre&gt;" style="rounded=0;whiteSpace=wrap;html=1;fillColor=none;fontColor=#EEEEEE;strokeColor=#BAC8D3;align=left;verticalAlign=top;labelBackgroundColor=none;" vertex="1" parent="1">
          <mxGeometry x="-31" y="-180" width="909" height="470" as="geometry" />
        </mxCell>
        <mxCell id="qSlRghDkS1WylrSBOuWX-106" value="&lt;pre&gt;&lt;font style=&quot;font-size: 15px;&quot; color=&quot;#e3c800&quot;&gt;&lt;i&gt;CONTROLLER&lt;/i&gt;&lt;/font&gt;&lt;/pre&gt;" style="rounded=0;whiteSpace=wrap;html=1;fillColor=none;fontColor=#EEEEEE;strokeColor=#BAC8D3;align=right;verticalAlign=bottom;labelBackgroundColor=none;imageAspect=1;" vertex="1" parent="1">
          <mxGeometry y="170" width="840" height="250" as="geometry" />
        </mxCell>
        <mxCell id="qSlRghDkS1WylrSBOuWX-67" value="" style="edgeStyle=orthogonalEdgeStyle;rounded=1;orthogonalLoop=1;jettySize=auto;html=1;labelBackgroundColor=none;fontColor=default;strokeColor=#0B4D6A;" edge="1" parent="1" source="qSlRghDkS1WylrSBOuWX-1" target="qSlRghDkS1WylrSBOuWX-66">
          <mxGeometry relative="1" as="geometry" />
        </mxCell>
        <mxCell id="qSlRghDkS1WylrSBOuWX-70" value="" style="edgeStyle=orthogonalEdgeStyle;rounded=1;orthogonalLoop=1;jettySize=auto;html=1;labelBackgroundColor=none;fontColor=default;strokeColor=#0B4D6A;" edge="1" parent="1" source="qSlRghDkS1WylrSBOuWX-1" target="qSlRghDkS1WylrSBOuWX-69">
          <mxGeometry relative="1" as="geometry" />
        </mxCell>
        <mxCell id="qSlRghDkS1WylrSBOuWX-1" value="Activity" style="rounded=1;whiteSpace=wrap;html=1;labelBackgroundColor=none;fillColor=#09555B;strokeColor=#BAC8D3;fontColor=#EEEEEE;" vertex="1" parent="1">
          <mxGeometry x="355" y="-140" width="120" height="60" as="geometry" />
        </mxCell>
        <mxCell id="qSlRghDkS1WylrSBOuWX-2" value="Home Fragment" style="rounded=1;whiteSpace=wrap;html=1;labelBackgroundColor=none;fillColor=#09555B;strokeColor=#BAC8D3;fontColor=#EEEEEE;" vertex="1" parent="1">
          <mxGeometry x="30" y="190" width="120" height="60" as="geometry" />
        </mxCell>
        <mxCell id="qSlRghDkS1WylrSBOuWX-3" value="Task Fragment" style="rounded=1;whiteSpace=wrap;html=1;labelBackgroundColor=none;fillColor=#09555B;strokeColor=#BAC8D3;fontColor=#EEEEEE;" vertex="1" parent="1">
          <mxGeometry x="235" y="190" width="120" height="60" as="geometry" />
        </mxCell>
        <mxCell id="qSlRghDkS1WylrSBOuWX-4" value="Calendar Fragment" style="rounded=1;whiteSpace=wrap;html=1;labelBackgroundColor=none;fillColor=#09555B;strokeColor=#BAC8D3;fontColor=#EEEEEE;" vertex="1" parent="1">
          <mxGeometry x="470" y="190" width="120" height="60" as="geometry" />
        </mxCell>
        <mxCell id="qSlRghDkS1WylrSBOuWX-5" value="" style="endArrow=classic;html=1;rounded=1;entryX=0.5;entryY=0;entryDx=0;entryDy=0;exitX=0;exitY=0.5;exitDx=0;exitDy=0;labelBackgroundColor=none;fontColor=default;strokeColor=#0B4D6A;" edge="1" parent="1" source="qSlRghDkS1WylrSBOuWX-66" target="qSlRghDkS1WylrSBOuWX-2">
          <mxGeometry width="50" height="50" relative="1" as="geometry">
            <mxPoint x="260" y="100" as="sourcePoint" />
            <mxPoint x="100" y="190" as="targetPoint" />
            <Array as="points">
              <mxPoint x="90" y="100" />
            </Array>
          </mxGeometry>
        </mxCell>
        <mxCell id="qSlRghDkS1WylrSBOuWX-7" value="" style="endArrow=classic;html=1;rounded=1;exitX=0.5;exitY=1;exitDx=0;exitDy=0;entryX=0.586;entryY=-0.05;entryDx=0;entryDy=0;entryPerimeter=0;labelBackgroundColor=none;fontColor=default;strokeColor=#0B4D6A;" edge="1" parent="1" source="qSlRghDkS1WylrSBOuWX-69" target="qSlRghDkS1WylrSBOuWX-3">
          <mxGeometry width="50" height="50" relative="1" as="geometry">
            <mxPoint x="320" y="100" as="sourcePoint" />
            <mxPoint x="319.5" y="190" as="targetPoint" />
            <Array as="points" />
          </mxGeometry>
        </mxCell>
        <mxCell id="qSlRghDkS1WylrSBOuWX-8" value="State Holder" style="rounded=1;whiteSpace=wrap;html=1;labelBackgroundColor=none;fillColor=#09555B;strokeColor=#BAC8D3;fontColor=#EEEEEE;" vertex="1" parent="1">
          <mxGeometry x="335" y="325" width="180" height="60" as="geometry" />
        </mxCell>
        <mxCell id="qSlRghDkS1WylrSBOuWX-9" value="" style="endArrow=classic;html=1;rounded=1;entryX=0;entryY=0.5;entryDx=0;entryDy=0;exitX=0.5;exitY=1;exitDx=0;exitDy=0;labelBackgroundColor=none;fontColor=default;strokeColor=#0B4D6A;" edge="1" parent="1" source="qSlRghDkS1WylrSBOuWX-2" target="qSlRghDkS1WylrSBOuWX-8">
          <mxGeometry width="50" height="50" relative="1" as="geometry">
            <mxPoint x="80" y="370" as="sourcePoint" />
            <mxPoint x="130" y="320" as="targetPoint" />
            <Array as="points">
              <mxPoint x="90" y="355" />
            </Array>
          </mxGeometry>
        </mxCell>
        <mxCell id="qSlRghDkS1WylrSBOuWX-10" value="" style="endArrow=classic;html=1;rounded=1;entryX=1;entryY=0.5;entryDx=0;entryDy=0;exitX=0.5;exitY=1;exitDx=0;exitDy=0;labelBackgroundColor=none;fontColor=default;strokeColor=#0B4D6A;" edge="1" parent="1" source="qSlRghDkS1WylrSBOuWX-4" target="qSlRghDkS1WylrSBOuWX-8">
          <mxGeometry width="50" height="50" relative="1" as="geometry">
            <mxPoint x="390" y="420" as="sourcePoint" />
            <mxPoint x="340" y="470" as="targetPoint" />
            <Array as="points">
              <mxPoint x="530" y="355" />
            </Array>
          </mxGeometry>
        </mxCell>
        <mxCell id="qSlRghDkS1WylrSBOuWX-11" value="" style="endArrow=classic;html=1;rounded=1;exitX=0.5;exitY=1;exitDx=0;exitDy=0;entryX=0;entryY=0.5;entryDx=0;entryDy=0;labelBackgroundColor=none;fontColor=default;strokeColor=#0B4D6A;" edge="1" parent="1" source="qSlRghDkS1WylrSBOuWX-3" target="qSlRghDkS1WylrSBOuWX-8">
          <mxGeometry width="50" height="50" relative="1" as="geometry">
            <mxPoint x="340" y="470" as="sourcePoint" />
            <mxPoint x="320" y="355" as="targetPoint" />
            <Array as="points">
              <mxPoint x="295" y="355" />
            </Array>
          </mxGeometry>
        </mxCell>
        <mxCell id="qSlRghDkS1WylrSBOuWX-76" value="" style="edgeStyle=orthogonalEdgeStyle;rounded=1;orthogonalLoop=1;jettySize=auto;html=1;exitX=1;exitY=0.5;exitDx=0;exitDy=0;labelBackgroundColor=none;fontColor=default;strokeColor=#0B4D6A;" edge="1" parent="1" source="qSlRghDkS1WylrSBOuWX-1" target="qSlRghDkS1WylrSBOuWX-75">
          <mxGeometry relative="1" as="geometry" />
        </mxCell>
        <mxCell id="qSlRghDkS1WylrSBOuWX-18" value="Task Model" style="rounded=1;whiteSpace=wrap;html=1;labelBackgroundColor=none;fillColor=#09555B;strokeColor=#BAC8D3;fontColor=#EEEEEE;" vertex="1" parent="1">
          <mxGeometry x="145" y="520" width="120" height="60" as="geometry" />
        </mxCell>
        <mxCell id="qSlRghDkS1WylrSBOuWX-19" value="Calendar Model" style="rounded=1;whiteSpace=wrap;html=1;labelBackgroundColor=none;fillColor=#09555B;strokeColor=#BAC8D3;fontColor=#EEEEEE;" vertex="1" parent="1">
          <mxGeometry x="365" y="520" width="120" height="60" as="geometry" />
        </mxCell>
        <mxCell id="qSlRghDkS1WylrSBOuWX-30" value="OpenAI Fragment" style="rounded=1;whiteSpace=wrap;html=1;labelBackgroundColor=none;fillColor=#09555B;strokeColor=#BAC8D3;fontColor=#EEEEEE;" vertex="1" parent="1">
          <mxGeometry x="670" y="190" width="120" height="60" as="geometry" />
        </mxCell>
        <mxCell id="qSlRghDkS1WylrSBOuWX-35" value="" style="endArrow=classic;html=1;rounded=1;entryX=1;entryY=0.5;entryDx=0;entryDy=0;exitX=0.5;exitY=1;exitDx=0;exitDy=0;labelBackgroundColor=none;fontColor=default;strokeColor=#0B4D6A;" edge="1" parent="1" source="qSlRghDkS1WylrSBOuWX-30" target="qSlRghDkS1WylrSBOuWX-8">
          <mxGeometry width="50" height="50" relative="1" as="geometry">
            <mxPoint x="570" y="430" as="sourcePoint" />
            <mxPoint x="620" y="380" as="targetPoint" />
            <Array as="points">
              <mxPoint x="730" y="355" />
            </Array>
          </mxGeometry>
        </mxCell>
        <mxCell id="qSlRghDkS1WylrSBOuWX-46" value="" style="endArrow=classic;html=1;rounded=1;exitX=0;exitY=0.5;exitDx=0;exitDy=0;entryX=0.5;entryY=0;entryDx=0;entryDy=0;labelBackgroundColor=none;fontColor=default;strokeColor=#0B4D6A;" edge="1" parent="1" source="qSlRghDkS1WylrSBOuWX-2" target="qSlRghDkS1WylrSBOuWX-50">
          <mxGeometry relative="1" as="geometry">
            <mxPoint x="50" y="740" as="sourcePoint" />
            <mxPoint x="80" y="790" as="targetPoint" />
            <Array as="points">
              <mxPoint x="-145" y="220" />
              <mxPoint x="-145" y="300" />
            </Array>
          </mxGeometry>
        </mxCell>
        <mxCell id="qSlRghDkS1WylrSBOuWX-47" value="Acquire token" style="edgeLabel;resizable=0;html=1;align=center;verticalAlign=middle;rotation=0;labelBackgroundColor=none;rounded=1;fontColor=#EEEEEE;" connectable="0" vertex="1" parent="qSlRghDkS1WylrSBOuWX-46">
          <mxGeometry relative="1" as="geometry" />
        </mxCell>
        <mxCell id="qSlRghDkS1WylrSBOuWX-50" value="" style="rounded=1;whiteSpace=wrap;html=1;fillColor=none;labelBackgroundColor=none;strokeColor=#BAC8D3;fontColor=#EEEEEE;" vertex="1" parent="1">
          <mxGeometry x="-320" y="520" width="350" height="325" as="geometry" />
        </mxCell>
        <mxCell id="qSlRghDkS1WylrSBOuWX-52" value="" style="edgeStyle=orthogonalEdgeStyle;rounded=1;orthogonalLoop=1;jettySize=auto;html=1;labelBackgroundColor=none;fontColor=default;strokeColor=#0B4D6A;" edge="1" parent="1" source="qSlRghDkS1WylrSBOuWX-51">
          <mxGeometry relative="1" as="geometry">
            <mxPoint x="-240" y="520" as="targetPoint" />
          </mxGeometry>
        </mxCell>
        <mxCell id="qSlRghDkS1WylrSBOuWX-51" value="Micosoft Identity Platform" style="text;html=1;strokeColor=none;fillColor=none;align=center;verticalAlign=middle;whiteSpace=wrap;rounded=1;labelBackgroundColor=none;fontColor=#EEEEEE;" vertex="1" parent="1">
          <mxGeometry x="-320" y="470" width="160" height="30" as="geometry" />
        </mxCell>
        <mxCell id="qSlRghDkS1WylrSBOuWX-60" value="" style="edgeStyle=orthogonalEdgeStyle;rounded=1;orthogonalLoop=1;jettySize=auto;html=1;labelBackgroundColor=none;fontColor=default;strokeColor=#0B4D6A;" edge="1" parent="1" source="qSlRghDkS1WylrSBOuWX-55">
          <mxGeometry relative="1" as="geometry">
            <mxPoint x="-155" y="660" as="targetPoint" />
          </mxGeometry>
        </mxCell>
        <mxCell id="qSlRghDkS1WylrSBOuWX-55" value="Microsoft Authentication Library (MSAL)" style="rounded=1;whiteSpace=wrap;html=1;labelBackgroundColor=none;fillColor=#09555B;strokeColor=#BAC8D3;fontColor=#EEEEEE;" vertex="1" parent="1">
          <mxGeometry x="-230" y="550" width="150" height="60" as="geometry" />
        </mxCell>
        <mxCell id="qSlRghDkS1WylrSBOuWX-63" value="" style="edgeStyle=orthogonalEdgeStyle;rounded=1;orthogonalLoop=1;jettySize=auto;html=1;labelBackgroundColor=none;fontColor=default;strokeColor=#0B4D6A;" edge="1" parent="1" source="qSlRghDkS1WylrSBOuWX-61" target="qSlRghDkS1WylrSBOuWX-62">
          <mxGeometry relative="1" as="geometry" />
        </mxCell>
        <mxCell id="qSlRghDkS1WylrSBOuWX-61" value="Microsoft Identity platform endpoint" style="rounded=1;whiteSpace=wrap;html=1;labelBackgroundColor=none;fillColor=#09555B;strokeColor=#BAC8D3;fontColor=#EEEEEE;" vertex="1" parent="1">
          <mxGeometry x="-230" y="652.5" width="150" height="60" as="geometry" />
        </mxCell>
        <mxCell id="qSlRghDkS1WylrSBOuWX-62" value="User Account" style="rounded=1;whiteSpace=wrap;html=1;labelBackgroundColor=none;fillColor=#09555B;strokeColor=#BAC8D3;fontColor=#EEEEEE;" vertex="1" parent="1">
          <mxGeometry x="-230" y="750" width="150" height="60" as="geometry" />
        </mxCell>
        <mxCell id="qSlRghDkS1WylrSBOuWX-64" value="" style="endArrow=classic;html=1;rounded=1;exitX=0.626;exitY=0;exitDx=0;exitDy=0;entryX=0.145;entryY=0.994;entryDx=0;entryDy=0;entryPerimeter=0;exitPerimeter=0;labelBackgroundColor=none;fontColor=default;strokeColor=#0B4D6A;" edge="1" parent="1" source="qSlRghDkS1WylrSBOuWX-50" target="qSlRghDkS1WylrSBOuWX-2">
          <mxGeometry relative="1" as="geometry">
            <mxPoint x="-100" y="680" as="sourcePoint" />
            <mxPoint x="75" y="220" as="targetPoint" />
            <Array as="points">
              <mxPoint x="-100" y="300" />
              <mxPoint x="47" y="300" />
            </Array>
          </mxGeometry>
        </mxCell>
        <mxCell id="qSlRghDkS1WylrSBOuWX-65" value="Access token" style="edgeLabel;resizable=0;html=1;align=center;verticalAlign=middle;rotation=0;labelBackgroundColor=none;rounded=1;fontColor=#EEEEEE;" connectable="0" vertex="1" parent="qSlRghDkS1WylrSBOuWX-64">
          <mxGeometry relative="1" as="geometry">
            <mxPoint y="29" as="offset" />
          </mxGeometry>
        </mxCell>
        <mxCell id="qSlRghDkS1WylrSBOuWX-66" value="UI" style="rounded=1;whiteSpace=wrap;html=1;labelBackgroundColor=none;fillColor=#09555B;strokeColor=#BAC8D3;fontColor=#EEEEEE;" vertex="1" parent="1">
          <mxGeometry x="60" y="70" width="60" height="60" as="geometry" />
        </mxCell>
        <mxCell id="qSlRghDkS1WylrSBOuWX-69" value="UI" style="rounded=1;whiteSpace=wrap;html=1;labelBackgroundColor=none;fillColor=#09555B;strokeColor=#BAC8D3;fontColor=#EEEEEE;" vertex="1" parent="1">
          <mxGeometry x="275" y="70" width="60" height="60" as="geometry" />
        </mxCell>
        <mxCell id="qSlRghDkS1WylrSBOuWX-75" value="UI" style="whiteSpace=wrap;html=1;labelBackgroundColor=none;rounded=1;fillColor=#09555B;strokeColor=#BAC8D3;fontColor=#EEEEEE;" vertex="1" parent="1">
          <mxGeometry x="500" y="70" width="60" height="60" as="geometry" />
        </mxCell>
        <mxCell id="qSlRghDkS1WylrSBOuWX-80" value="" style="endArrow=classic;html=1;rounded=1;entryX=0.5;entryY=0;entryDx=0;entryDy=0;exitX=0.5;exitY=1;exitDx=0;exitDy=0;labelBackgroundColor=none;fontColor=default;strokeColor=#0B4D6A;" edge="1" parent="1" source="qSlRghDkS1WylrSBOuWX-75" target="qSlRghDkS1WylrSBOuWX-4">
          <mxGeometry width="50" height="50" relative="1" as="geometry">
            <mxPoint x="380" y="160" as="sourcePoint" />
            <mxPoint x="430" y="110" as="targetPoint" />
          </mxGeometry>
        </mxCell>
        <mxCell id="qSlRghDkS1WylrSBOuWX-81" value="" style="edgeStyle=orthogonalEdgeStyle;rounded=1;orthogonalLoop=1;jettySize=auto;html=1;exitX=1;exitY=0.5;exitDx=0;exitDy=0;labelBackgroundColor=none;fontColor=default;strokeColor=#0B4D6A;" edge="1" parent="1" target="qSlRghDkS1WylrSBOuWX-82" source="qSlRghDkS1WylrSBOuWX-1">
          <mxGeometry relative="1" as="geometry">
            <mxPoint x="675" y="-110" as="sourcePoint" />
          </mxGeometry>
        </mxCell>
        <mxCell id="qSlRghDkS1WylrSBOuWX-82" value="UI" style="whiteSpace=wrap;html=1;labelBackgroundColor=none;rounded=1;fillColor=#09555B;strokeColor=#BAC8D3;fontColor=#EEEEEE;" vertex="1" parent="1">
          <mxGeometry x="700" y="70" width="60" height="60" as="geometry" />
        </mxCell>
        <mxCell id="qSlRghDkS1WylrSBOuWX-83" value="" style="endArrow=classic;html=1;rounded=1;entryX=0.5;entryY=0;entryDx=0;entryDy=0;exitX=0.5;exitY=1;exitDx=0;exitDy=0;labelBackgroundColor=none;fontColor=default;strokeColor=#0B4D6A;" edge="1" parent="1" source="qSlRghDkS1WylrSBOuWX-82">
          <mxGeometry width="50" height="50" relative="1" as="geometry">
            <mxPoint x="580" y="160" as="sourcePoint" />
            <mxPoint x="730" y="190" as="targetPoint" />
          </mxGeometry>
        </mxCell>
        <mxCell id="qSlRghDkS1WylrSBOuWX-84" value="Microsoft Graph API Service" style="rounded=1;whiteSpace=wrap;html=1;labelBackgroundColor=none;fillColor=#09555B;strokeColor=#BAC8D3;fontColor=#EEEEEE;" vertex="1" parent="1">
          <mxGeometry x="155" y="650" width="285" height="60" as="geometry" />
        </mxCell>
        <mxCell id="qSlRghDkS1WylrSBOuWX-86" value="OpenAI data" style="rounded=1;whiteSpace=wrap;html=1;labelBackgroundColor=none;fillColor=#09555B;strokeColor=#BAC8D3;fontColor=#EEEEEE;" vertex="1" parent="1">
          <mxGeometry x="560" y="520" width="120" height="60" as="geometry" />
        </mxCell>
        <mxCell id="qSlRghDkS1WylrSBOuWX-91" value="" style="endArrow=classic;startArrow=classic;html=1;rounded=1;entryX=0.138;entryY=0.998;entryDx=0;entryDy=0;entryPerimeter=0;exitX=0.5;exitY=0;exitDx=0;exitDy=0;labelBackgroundColor=none;fontColor=default;strokeColor=#0B4D6A;dashed=1;" edge="1" parent="1" source="qSlRghDkS1WylrSBOuWX-18" target="qSlRghDkS1WylrSBOuWX-8">
          <mxGeometry width="50" height="50" relative="1" as="geometry">
            <mxPoint x="30" y="380" as="sourcePoint" />
            <mxPoint x="80" y="330" as="targetPoint" />
            <Array as="points">
              <mxPoint x="205" y="440" />
              <mxPoint x="360" y="440" />
            </Array>
          </mxGeometry>
        </mxCell>
        <mxCell id="qSlRghDkS1WylrSBOuWX-92" value="" style="endArrow=classic;startArrow=classic;html=1;rounded=1;entryX=0.5;entryY=0;entryDx=0;entryDy=0;exitX=0.75;exitY=1;exitDx=0;exitDy=0;labelBackgroundColor=none;fontColor=default;strokeColor=#0B4D6A;dashed=1;" edge="1" parent="1" source="qSlRghDkS1WylrSBOuWX-8" target="qSlRghDkS1WylrSBOuWX-86">
          <mxGeometry width="50" height="50" relative="1" as="geometry">
            <mxPoint x="30" y="380" as="sourcePoint" />
            <mxPoint x="80" y="330" as="targetPoint" />
            <Array as="points">
              <mxPoint x="470" y="440" />
              <mxPoint x="620" y="440" />
            </Array>
          </mxGeometry>
        </mxCell>
        <mxCell id="qSlRghDkS1WylrSBOuWX-93" value="Azure OpenAI Service" style="rounded=1;whiteSpace=wrap;html=1;labelBackgroundColor=none;fillColor=#09555B;strokeColor=#BAC8D3;fontColor=#EEEEEE;" vertex="1" parent="1">
          <mxGeometry x="520" y="650" width="160" height="60" as="geometry" />
        </mxCell>
        <mxCell id="qSlRghDkS1WylrSBOuWX-97" value="" style="endArrow=classic;html=1;rounded=1;entryX=0.117;entryY=0.042;entryDx=0;entryDy=0;entryPerimeter=0;exitX=0.362;exitY=1.082;exitDx=0;exitDy=0;exitPerimeter=0;labelBackgroundColor=none;fontColor=default;strokeColor=#0B4D6A;" edge="1" parent="1" source="qSlRghDkS1WylrSBOuWX-18" target="qSlRghDkS1WylrSBOuWX-84">
          <mxGeometry width="50" height="50" relative="1" as="geometry">
            <mxPoint x="80" y="440" as="sourcePoint" />
            <mxPoint x="130" y="390" as="targetPoint" />
          </mxGeometry>
        </mxCell>
        <mxCell id="qSlRghDkS1WylrSBOuWX-98" value="" style="endArrow=classic;html=1;rounded=1;entryX=0.5;entryY=1;entryDx=0;entryDy=0;exitX=0.181;exitY=0.01;exitDx=0;exitDy=0;exitPerimeter=0;labelBackgroundColor=none;fontColor=default;strokeColor=#0B4D6A;" edge="1" parent="1" source="qSlRghDkS1WylrSBOuWX-84" target="qSlRghDkS1WylrSBOuWX-18">
          <mxGeometry width="50" height="50" relative="1" as="geometry">
            <mxPoint x="220" y="660" as="sourcePoint" />
            <mxPoint x="220" y="584.5" as="targetPoint" />
          </mxGeometry>
        </mxCell>
        <mxCell id="qSlRghDkS1WylrSBOuWX-99" value="" style="endArrow=classic;html=1;rounded=1;entryX=0.832;entryY=-0.037;entryDx=0;entryDy=0;entryPerimeter=0;exitX=0.25;exitY=1;exitDx=0;exitDy=0;labelBackgroundColor=none;fontColor=default;strokeColor=#0B4D6A;" edge="1" parent="1" source="qSlRghDkS1WylrSBOuWX-19" target="qSlRghDkS1WylrSBOuWX-84">
          <mxGeometry width="50" height="50" relative="1" as="geometry">
            <mxPoint x="80" y="440" as="sourcePoint" />
            <mxPoint x="130" y="390" as="targetPoint" />
          </mxGeometry>
        </mxCell>
        <mxCell id="qSlRghDkS1WylrSBOuWX-100" value="" style="endArrow=classic;html=1;rounded=1;entryX=0.401;entryY=1.098;entryDx=0;entryDy=0;entryPerimeter=0;exitX=0.906;exitY=-0.021;exitDx=0;exitDy=0;exitPerimeter=0;labelBackgroundColor=none;fontColor=default;strokeColor=#0B4D6A;" edge="1" parent="1" source="qSlRghDkS1WylrSBOuWX-84" target="qSlRghDkS1WylrSBOuWX-19">
          <mxGeometry width="50" height="50" relative="1" as="geometry">
            <mxPoint x="80" y="440" as="sourcePoint" />
            <mxPoint x="130" y="390" as="targetPoint" />
          </mxGeometry>
        </mxCell>
        <mxCell id="qSlRghDkS1WylrSBOuWX-101" value="" style="endArrow=classic;html=1;rounded=1;entryX=0.181;entryY=1.034;entryDx=0;entryDy=0;exitX=0.392;exitY=0.01;exitDx=0;exitDy=0;exitPerimeter=0;entryPerimeter=0;labelBackgroundColor=none;fontColor=default;strokeColor=#0B4D6A;" edge="1" parent="1" source="qSlRghDkS1WylrSBOuWX-93" target="qSlRghDkS1WylrSBOuWX-86">
          <mxGeometry width="50" height="50" relative="1" as="geometry">
            <mxPoint x="590" y="640" as="sourcePoint" />
            <mxPoint x="130" y="390" as="targetPoint" />
          </mxGeometry>
        </mxCell>
        <mxCell id="qSlRghDkS1WylrSBOuWX-103" value="" style="endArrow=classic;html=1;rounded=1;exitX=0.34;exitY=1.034;exitDx=0;exitDy=0;exitPerimeter=0;labelBackgroundColor=none;fontColor=default;strokeColor=#0B4D6A;" edge="1" parent="1" source="qSlRghDkS1WylrSBOuWX-86">
          <mxGeometry width="50" height="50" relative="1" as="geometry">
            <mxPoint x="80" y="440" as="sourcePoint" />
            <mxPoint x="600" y="650" as="targetPoint" />
          </mxGeometry>
        </mxCell>
        <mxCell id="qSlRghDkS1WylrSBOuWX-109" value="" style="endArrow=classic;html=1;rounded=0;strokeColor=#0B4D6A;entryX=0.6;entryY=0.976;entryDx=0;entryDy=0;entryPerimeter=0;exitX=0;exitY=0.25;exitDx=0;exitDy=0;jumpStyle=arc;labelBackgroundColor=none;fontColor=default;" edge="1" parent="1" source="qSlRghDkS1WylrSBOuWX-8" target="qSlRghDkS1WylrSBOuWX-2">
          <mxGeometry width="50" height="50" relative="1" as="geometry">
            <mxPoint x="188" y="337" as="sourcePoint" />
            <mxPoint x="238" y="287" as="targetPoint" />
            <Array as="points">
              <mxPoint x="102" y="341" />
            </Array>
          </mxGeometry>
        </mxCell>
        <mxCell id="qSlRghDkS1WylrSBOuWX-110" value="" style="endArrow=classic;html=1;rounded=0;strokeColor=#0B4D6A;entryX=0.63;entryY=1.166;entryDx=0;entryDy=0;entryPerimeter=0;exitX=0;exitY=0.25;exitDx=0;exitDy=0;labelBackgroundColor=none;fontColor=default;" edge="1" parent="1" source="qSlRghDkS1WylrSBOuWX-8" target="qSlRghDkS1WylrSBOuWX-3">
          <mxGeometry width="50" height="50" relative="1" as="geometry">
            <mxPoint x="188" y="337" as="sourcePoint" />
            <mxPoint x="238" y="287" as="targetPoint" />
            <Array as="points">
              <mxPoint x="311" y="340" />
            </Array>
          </mxGeometry>
        </mxCell>
        <mxCell id="qSlRghDkS1WylrSBOuWX-111" value="" style="endArrow=classic;html=1;rounded=0;strokeColor=#0B4D6A;entryX=0.379;entryY=1.09;entryDx=0;entryDy=0;entryPerimeter=0;exitX=1;exitY=0.25;exitDx=0;exitDy=0;jumpStyle=arc;labelBackgroundColor=none;fontColor=default;" edge="1" parent="1" source="qSlRghDkS1WylrSBOuWX-8" target="qSlRghDkS1WylrSBOuWX-30">
          <mxGeometry width="50" height="50" relative="1" as="geometry">
            <mxPoint x="188" y="337" as="sourcePoint" />
            <mxPoint x="167" y="334" as="targetPoint" />
            <Array as="points">
              <mxPoint x="715" y="340" />
            </Array>
          </mxGeometry>
        </mxCell>
        <mxCell id="qSlRghDkS1WylrSBOuWX-112" value="" style="endArrow=classic;html=1;rounded=0;strokeColor=#0B4D6A;entryX=0.617;entryY=1.026;entryDx=0;entryDy=0;entryPerimeter=0;exitX=1;exitY=0.25;exitDx=0;exitDy=0;jumpStyle=arc;labelBackgroundColor=none;fontColor=default;" edge="1" parent="1" source="qSlRghDkS1WylrSBOuWX-8" target="qSlRghDkS1WylrSBOuWX-4">
          <mxGeometry width="50" height="50" relative="1" as="geometry">
            <mxPoint x="188" y="337" as="sourcePoint" />
            <mxPoint x="238" y="287" as="targetPoint" />
            <Array as="points">
              <mxPoint x="544" y="340" />
            </Array>
          </mxGeometry>
        </mxCell>
        <mxCell id="qSlRghDkS1WylrSBOuWX-113" value="" style="endArrow=classic;html=1;rounded=0;strokeColor=#0B4D6A;entryX=0.75;entryY=1;entryDx=0;entryDy=0;exitX=0.625;exitY=0.058;exitDx=0;exitDy=0;exitPerimeter=0;labelBackgroundColor=none;fontColor=default;" edge="1" parent="1" source="qSlRghDkS1WylrSBOuWX-2" target="qSlRghDkS1WylrSBOuWX-66">
          <mxGeometry width="50" height="50" relative="1" as="geometry">
            <mxPoint x="188" y="337" as="sourcePoint" />
            <mxPoint x="238" y="287" as="targetPoint" />
          </mxGeometry>
        </mxCell>
        <mxCell id="qSlRghDkS1WylrSBOuWX-115" value="" style="endArrow=classic;html=1;rounded=0;strokeColor=#0B4D6A;entryX=0.335;entryY=1.008;entryDx=0;entryDy=0;entryPerimeter=0;labelBackgroundColor=none;fontColor=default;" edge="1" parent="1" source="qSlRghDkS1WylrSBOuWX-3" target="qSlRghDkS1WylrSBOuWX-69">
          <mxGeometry width="50" height="50" relative="1" as="geometry">
            <mxPoint x="188" y="337" as="sourcePoint" />
            <mxPoint x="295" y="118" as="targetPoint" />
          </mxGeometry>
        </mxCell>
        <mxCell id="qSlRghDkS1WylrSBOuWX-116" value="" style="endArrow=classic;html=1;rounded=0;strokeColor=#0B4D6A;entryX=0.376;entryY=1.012;entryDx=0;entryDy=0;entryPerimeter=0;exitX=0.44;exitY=-0.014;exitDx=0;exitDy=0;exitPerimeter=0;labelBackgroundColor=none;fontColor=default;" edge="1" parent="1" source="qSlRghDkS1WylrSBOuWX-4" target="qSlRghDkS1WylrSBOuWX-75">
          <mxGeometry width="50" height="50" relative="1" as="geometry">
            <mxPoint x="334" y="235" as="sourcePoint" />
            <mxPoint x="384" y="185" as="targetPoint" />
          </mxGeometry>
        </mxCell>
        <mxCell id="qSlRghDkS1WylrSBOuWX-117" value="" style="endArrow=classic;html=1;rounded=0;strokeColor=#0B4D6A;entryX=0.396;entryY=1.008;entryDx=0;entryDy=0;entryPerimeter=0;exitX=0.443;exitY=0.003;exitDx=0;exitDy=0;exitPerimeter=0;labelBackgroundColor=none;fontColor=default;" edge="1" parent="1" source="qSlRghDkS1WylrSBOuWX-30" target="qSlRghDkS1WylrSBOuWX-82">
          <mxGeometry width="50" height="50" relative="1" as="geometry">
            <mxPoint x="592" y="184" as="sourcePoint" />
            <mxPoint x="642" y="134" as="targetPoint" />
          </mxGeometry>
        </mxCell>
        <mxCell id="qSlRghDkS1WylrSBOuWX-118" value="" style="endArrow=classic;startArrow=classic;html=1;rounded=0;strokeColor=#0B4D6A;entryX=0.5;entryY=0;entryDx=0;entryDy=0;exitX=0.499;exitY=0.963;exitDx=0;exitDy=0;exitPerimeter=0;dashed=1;labelBackgroundColor=none;fontColor=default;" edge="1" parent="1" source="qSlRghDkS1WylrSBOuWX-8" target="qSlRghDkS1WylrSBOuWX-19">
          <mxGeometry width="50" height="50" relative="1" as="geometry">
            <mxPoint x="143" y="247" as="sourcePoint" />
            <mxPoint x="193" y="197" as="targetPoint" />
          </mxGeometry>
        </mxCell>
      </root>
    </mxGraphModel>
  </diagram>
</mxfile>
